<svg xmlns="http://www.w3.org/2000/svg" viewBox="0 0 400 88" fill="none">
  <defs>
    <linearGradient id="gi" x1="24" y1="0" x2="84" y2="80" gradientUnits="userSpaceOnUse">
      <stop offset="0%" stop-color="#0099BB"/>
      <stop offset="100%" stop-color="#0040A0"/>
    </linearGradient>
  </defs>

  <!-- Icon: scaled to 88px tall -->
  <g transform="translate(4, 4) scale(0.364)">
    <path
      d="M 118,18
         C 100,15 78,30 64,52
         C 52,70 44,90 45,108
         C 46,118 50,124 52,132
         C 54,142 53,150 51,160
         C 49,170 53,180 62,187
         L 72,196
         L 106,196
         C 124,184 140,166 146,144
         C 155,118 153,88 144,64
         C 135,40 130,22 118,18 Z"
      stroke="url(#gi)" stroke-width="7.5" stroke-linejoin="round" stroke-linecap="round"
    />
    <circle cx="138" cy="88" r="12" stroke="url(#gi)" stroke-width="6"/>
    <line x1="136" y1="76" x2="120" y2="20" stroke="url(#gi)" stroke-width="5.5"/>
    <circle cx="120" cy="15" r="14" stroke="url(#gi)" stroke-width="6"/>
    <line x1="134" y1="78" x2="90" y2="44" stroke="url(#gi)" stroke-width="5.5"/>
    <circle cx="87" cy="41" r="14" stroke="url(#gi)" stroke-width="6"/>
    <line x1="142" y1="77" x2="196" y2="33" stroke="url(#gi)" stroke-width="5.5"/>
    <circle cx="169" cy="58" r="10" stroke="url(#gi)" stroke-width="6"/>
    <circle cx="199" cy="30" r="14" stroke="url(#gi)" stroke-width="6"/>
    <line x1="144" y1="90" x2="176" y2="95" stroke="url(#gi)" stroke-width="5.5"/>
    <circle cx="196" cy="96" r="57" stroke="url(#gi)" stroke-width="6"/>
    <circle cx="196" cy="96" r="33" stroke="url(#gi)" stroke-width="6"/>
    <circle cx="196" cy="96" r="11" fill="url(#gi)"/>
    <line x1="213" y1="116" x2="235" y2="142" stroke="url(#gi)" stroke-width="5.5"/>
    <circle cx="238" cy="146" r="14" stroke="url(#gi)" stroke-width="6"/>
  </g>

  <!-- Wordmark -->
  <text
    x="106"
    y="52"
    font-family="'Space Grotesk', 'Helvetica Neue', Arial, sans-serif"
    font-weight="600"
    font-size="42"
    letter-spacing="7"
    fill="#080D18"
  >OTMA</text>

  <!-- Tagline -->
  <text
    x="107"
    y="68"
    font-family="'Inter', system-ui, sans-serif"
    font-weight="400"
    font-size="8.5"
    letter-spacing="2.5"
    fill="#4A5878"
  >INTELLIGENT · AI · AGENTS</text>
</svg>
